<svg xmlns="http://www.w3.org/2000/svg" viewBox="0 0 960 600" role="img" aria-label="Operations platform dashboard">
  <defs>
    <linearGradient id="surface" x1="0" y1="0" x2="1" y2="1">
      <stop offset="0" stop-color="#f7fbff"/>
      <stop offset="1" stop-color="#eaf8ff"/>
    </linearGradient>
    <linearGradient id="accent" x1="0" y1="0" x2="1" y2="0">
      <stop offset="0" stop-color="#0570fc"/>
      <stop offset="0.56" stop-color="#039efc"/>
      <stop offset="1" stop-color="#03cdfd"/>
    </linearGradient>
  </defs>
  <rect width="960" height="600" fill="url(#surface)"/>
  <rect x="78" y="70" width="804" height="460" rx="8" fill="#ffffff" stroke="#d8e6f3"/>
  <rect x="116" y="112" width="232" height="42" rx="8" fill="#061b3d"/>
  <rect x="116" y="190" width="210" height="250" rx="8" fill="#f3f8ff" stroke="#d8e6f3"/>
  <rect x="374" y="190" width="210" height="250" rx="8" fill="#f3f8ff" stroke="#d8e6f3"/>
  <rect x="632" y="190" width="210" height="250" rx="8" fill="#f3f8ff" stroke="#d8e6f3"/>
  <rect x="144" y="228" width="154" height="14" rx="7" fill="url(#accent)"/>
  <rect x="144" y="274" width="122" height="12" rx="6" fill="#64748b" opacity="0.58"/>
  <rect x="144" y="316" width="138" height="12" rx="6" fill="#64748b" opacity="0.42"/>
  <rect x="402" y="228" width="154" height="14" rx="7" fill="url(#accent)"/>
  <rect x="402" y="274" width="126" height="12" rx="6" fill="#64748b" opacity="0.58"/>
  <rect x="402" y="316" width="150" height="12" rx="6" fill="#64748b" opacity="0.42"/>
  <rect x="660" y="228" width="154" height="14" rx="7" fill="url(#accent)"/>
  <rect x="660" y="274" width="112" height="12" rx="6" fill="#64748b" opacity="0.58"/>
  <rect x="660" y="316" width="142" height="12" rx="6" fill="#64748b" opacity="0.42"/>
  <g fill="#183652" font-family="Inter, Arial, sans-serif" font-weight="800">
    <text x="144" y="382" font-size="20">Tickets</text>
    <text x="402" y="382" font-size="20">Assets</text>
    <text x="660" y="382" font-size="20">Alerts</text>
  </g>
</svg>
